<svg width="249" height="108" viewBox="0 0 249 108" fill="none" xmlns="http://www.w3.org/2000/svg">
<path d="M45.024 38.696C44.576 39.432 44.112 39.976 43.632 40.328C43.184 40.648 42.592 40.808 41.856 40.808C41.152 40.808 40.384 40.568 39.552 40.088C38.752 39.576 37.808 39.032 36.72 38.456C35.632 37.88 34.384 37.352 32.976 36.872C31.568 36.36 29.92 36.104 28.032 36.104C24.704 36.104 22.208 36.856 20.544 38.36C18.88 39.832 18.048 41.768 18.048 44.168C18.048 45.704 18.496 46.984 19.392 48.008C20.32 49 21.52 49.864 22.992 50.6C24.496 51.336 26.192 51.992 28.08 52.568C29.968 53.144 31.904 53.784 33.888 54.488C35.872 55.16 37.808 55.96 39.696 56.888C41.584 57.816 43.264 58.984 44.736 60.392C46.24 61.8 47.44 63.528 48.336 65.576C49.264 67.592 49.728 70.056 49.728 72.968C49.728 76.136 49.168 79.112 48.048 81.896C46.96 84.648 45.376 87.064 43.296 89.144C41.216 91.192 38.64 92.808 35.568 93.992C32.528 95.176 29.072 95.768 25.2 95.768C22.992 95.768 20.784 95.544 18.576 95.096C16.4 94.648 14.288 94.024 12.24 93.224C10.224 92.424 8.32 91.464 6.528 90.344C4.736 89.224 3.168 87.976 1.824 86.6L6.048 79.784C6.4 79.272 6.864 78.856 7.44 78.536C8.016 78.184 8.624 78.008 9.264 78.008C10.128 78.008 11.04 78.328 12 78.968C12.96 79.608 14.064 80.312 15.312 81.08C16.56 81.848 18 82.552 19.632 83.192C21.296 83.832 23.28 84.152 25.584 84.152C28.944 84.152 31.536 83.384 33.36 81.848C35.216 80.312 36.144 78.024 36.144 74.984C36.144 73.224 35.68 71.8 34.752 70.712C33.856 69.624 32.672 68.712 31.2 67.976C29.728 67.24 28.048 66.616 26.16 66.104C24.272 65.56 22.336 64.968 20.352 64.328C18.368 63.688 16.432 62.92 14.544 62.024C12.656 61.128 10.976 59.944 9.504 58.472C8.032 57 6.832 55.176 5.904 53C5.008 50.824 4.56 48.12 4.56 44.888C4.56 42.296 5.072 39.784 6.096 37.352C7.12 34.92 8.624 32.76 10.608 30.872C12.592 28.984 15.024 27.464 17.904 26.312C20.816 25.16 24.144 24.584 27.888 24.584C32.08 24.584 35.952 25.24 39.504 26.552C43.088 27.832 46.112 29.624 48.576 31.928L45.024 38.696ZM71.0348 23.432V95H57.7868V23.432H71.0348ZM104.386 44.744C108.098 44.744 111.474 45.336 114.514 46.52C117.554 47.704 120.162 49.4 122.338 51.608C124.514 53.784 126.194 56.44 127.378 59.576C128.562 62.712 129.154 66.248 129.154 70.184C129.154 74.12 128.562 77.672 127.378 80.84C126.194 83.976 124.514 86.648 122.338 88.856C120.162 91.064 117.554 92.76 114.514 93.944C111.474 95.128 108.098 95.72 104.386 95.72C100.642 95.72 97.2338 95.128 94.1618 93.944C91.1218 92.76 88.5138 91.064 86.3378 88.856C84.1618 86.648 82.4658 83.976 81.2498 80.84C80.0658 77.672 79.4738 74.12 79.4738 70.184C79.4738 66.248 80.0658 62.712 81.2498 59.576C82.4658 56.44 84.1618 53.784 86.3378 51.608C88.5138 49.4 91.1218 47.704 94.1618 46.52C97.2338 45.336 100.642 44.744 104.386 44.744ZM104.386 85.784C108.162 85.784 110.962 84.488 112.786 81.896C114.61 79.272 115.522 75.384 115.522 70.232C115.522 65.112 114.61 61.256 112.786 58.664C110.962 56.04 108.162 54.728 104.386 54.728C100.514 54.728 97.6658 56.04 95.8418 58.664C94.0178 61.256 93.1058 65.112 93.1058 70.232C93.1058 75.384 94.0178 79.272 95.8418 81.896C97.6658 84.488 100.514 85.784 104.386 85.784ZM153.623 95.768C151.383 95.768 149.399 95.448 147.671 94.808C145.943 94.136 144.487 93.192 143.303 91.976C142.119 90.76 141.223 89.288 140.615 87.56C140.007 85.832 139.703 83.88 139.703 81.704V55.016H135.047C134.343 55.016 133.735 54.792 133.223 54.344C132.743 53.896 132.503 53.224 132.503 52.328V47.144L140.423 45.704L143.111 32.888C143.463 31.448 144.439 30.728 146.039 30.728H152.951V45.8H165.719V55.016H152.951V80.84C152.951 82.216 153.271 83.304 153.911 84.104C154.583 84.904 155.527 85.304 156.743 85.304C157.383 85.304 157.927 85.24 158.375 85.112C158.823 84.952 159.207 84.792 159.527 84.632C159.847 84.44 160.135 84.28 160.391 84.152C160.679 83.992 160.967 83.912 161.255 83.912C161.639 83.912 161.959 84.008 162.215 84.2C162.471 84.36 162.727 84.648 162.983 85.064L166.967 91.4C165.143 92.84 163.079 93.928 160.775 94.664C158.471 95.4 156.087 95.768 153.623 95.768ZM203.584 55.688C203.232 56.232 202.864 56.632 202.48 56.888C202.128 57.112 201.632 57.224 200.992 57.224C200.352 57.224 199.696 57.064 199.024 56.744C198.352 56.424 197.6 56.088 196.768 55.736C195.936 55.352 194.976 55 193.888 54.68C192.832 54.36 191.6 54.2 190.192 54.2C188.048 54.2 186.384 54.648 185.2 55.544C184.016 56.408 183.424 57.56 183.424 59C183.424 59.992 183.76 60.824 184.432 61.496C185.104 62.168 185.984 62.76 187.072 63.272C188.192 63.752 189.456 64.216 190.864 64.664C192.272 65.08 193.712 65.544 195.184 66.056C196.688 66.568 198.144 67.16 199.552 67.832C200.96 68.504 202.208 69.352 203.296 70.376C204.416 71.368 205.312 72.584 205.984 74.024C206.656 75.432 206.992 77.144 206.992 79.16C206.992 81.56 206.544 83.784 205.648 85.832C204.784 87.848 203.504 89.592 201.808 91.064C200.112 92.536 198 93.688 195.472 94.52C192.944 95.352 190.032 95.768 186.736 95.768C185.04 95.768 183.36 95.608 181.696 95.288C180.032 95 178.448 94.584 176.944 94.04C175.44 93.464 174.032 92.808 172.72 92.072C171.408 91.336 170.272 90.536 169.312 89.672L172.384 84.728C172.736 84.152 173.168 83.704 173.68 83.384C174.224 83.064 174.912 82.904 175.744 82.904C176.544 82.904 177.28 83.112 177.952 83.528C178.624 83.912 179.376 84.344 180.208 84.824C181.04 85.272 182.016 85.704 183.136 86.12C184.288 86.504 185.712 86.696 187.408 86.696C188.688 86.696 189.792 86.552 190.72 86.264C191.648 85.976 192.4 85.592 192.976 85.112C193.552 84.6 193.968 84.04 194.224 83.432C194.512 82.792 194.656 82.136 194.656 81.464C194.656 80.376 194.304 79.496 193.6 78.824C192.928 78.12 192.032 77.512 190.912 77C189.824 76.488 188.56 76.024 187.12 75.608C185.68 75.192 184.208 74.728 182.704 74.216C181.232 73.704 179.776 73.096 178.336 72.392C176.928 71.688 175.664 70.808 174.544 69.752C173.456 68.664 172.56 67.336 171.856 65.768C171.184 64.2 170.848 62.296 170.848 60.056C170.848 58.008 171.248 56.072 172.048 54.248C172.848 52.392 174.048 50.76 175.648 49.352C177.248 47.944 179.232 46.824 181.6 45.992C184 45.16 186.768 44.744 189.904 44.744C193.424 44.744 196.624 45.32 199.504 46.472C202.384 47.624 204.752 49.128 206.608 50.984L203.584 55.688Z" fill="#201F24"/>
<circle cx="235" cy="81" r="14" fill="#027DC3"/>
</svg>
